<svg width="65" height="65" viewBox="0 0 65 65" xmlns="http://www.w3.org/2000/svg">
  <!-- Black Edge - 00 -->
  <path 
    d="M30.5 65
       L30.5 50
       A6 6 0 0 1 32.257 45.757
       L45.757 32.257
       A6 6 0 0 1 50 30.5
       L65 30.5"
    fill="none"
    stroke="#000000"
    stroke-width="1"
    stroke-linecap="square"
    stroke-linejoin="round"
    opacity="1.0"
  />
  
  <!-- Glow Edge - 01 -->
  <path 
    d="M29 65
       L29 50
       A7.5 7.5 0 0 1 31.343 44.343
       L44.343 31.343
       A7.5 7.5 0 0 1 50 29
       L65 29"
    fill="none"
    stroke="#41c4fe"
    stroke-width="2"
    stroke-linecap="square"
    stroke-linejoin="round"
    opacity="1.0"
  />
  
  <!-- Black Edge - 03 -->
  <path 
    d="M27.5 65
       L27.5 50
       A9 9 0 0 1 30.136 43.636
       L43.636 30.136
       A9 9 0 0 1 50 27.5
       L65 27.5"
    fill="none"
    stroke="#000000"
    stroke-width="1"
    stroke-linecap="square"
    stroke-linejoin="round"
    opacity="1.0"
  />
  
  <!-- Body Edge - 04 -->
  <path 
    d="M23 65
       L23 50
       A13.5 13.5 0 0 1 26.954 40.454
       L40.454 26.954
       A13.5 13.5 0 0 1 50 23
       L65 23"
    fill="none"
    stroke="#011d4f"
    stroke-width="8"
    stroke-linecap="square"
    stroke-linejoin="round"
    opacity="1.0"
  />
  
  <!-- Black Edge - 05 -->
  <path 
    d="M18.5 65
       L18.5 50
       A18 18 0 0 1 23.772 37.272
       L37.272 23.772
       A18 18 0 0 1 50 18.5
       L65 18.5"
    fill="none"
    stroke="#000000"
    stroke-width="1"
    stroke-linecap="square"
    stroke-linejoin="round"
    opacity="1.0"
  />
  
  <!-- Glow Edge - 06 -->
  <path 
    d="M17.5 65
       L17.5 50
       A19 19 0 0 1 23.065 36.565
       L36.565 23.065
       A19 19 0 0 1 50 17.5
       L65 17.5"
    fill="none"
    stroke="#41c4fe"
    stroke-width="1"
    stroke-linecap="square"
    stroke-linejoin="round"
    opacity="1.0"
  />
  
  <!-- Black Edge - 07 -->
  <path 
    d="M16.5 65
       L16.5 50
       A20 20 0 0 1 22.358 35.858
       L35.858 22.358
       A20 20 0 0 1 50 16.5
       L65 16.5"
    fill="none"
    stroke="#000000"
    stroke-width="1"
    stroke-linecap="square"
    stroke-linejoin="round"
    opacity="1.0"
  />
  
  <!-- Glow Edge - 08 -->
  <path 
    d="M14.5 65
       L14.5 50
       A22 22 0 0 1 21.237 33.737
       L33.737 21.237
       A22 22 0 0 1 50 14.5
       L65 14.5"
    fill="none"
    stroke="#41c4fe"
    stroke-width="3"
    stroke-linecap="square"
    stroke-linejoin="round"
    opacity="1.0"
  />
  
  <!-- Black Edge - 09 -->
  <path 
    d="M12.5 65
       L12.5 50
       A24 24 0 0 1 19.529 33.029
       L33.029 19.529
       A24 24 0 0 1 50 12.5
       L65 12.5"
    fill="none"
    stroke="#000000"
    stroke-width="1"
    stroke-linecap="square"
    stroke-linejoin="round"
    opacity="1.0"
  />
  
  <!-- Body Edge - 04 -->
  <path 
    d="M9.5 65
       L9.5 50
       A27 27 0 0 1 17.408 30.908
       L30.908 17.408
       A27 27 0 0 1 50 9.5
       L65 9.5"
    fill="none"
    stroke="#011d4f"
    stroke-width="5"
    stroke-linecap="square"
    stroke-linejoin="round"
    opacity="1.0"
  />
  
  <!-- Black Edge - 09 -->
  <path 
    d="M6.5 65
       L6.5 50
       A30 30 0 0 1 15.287 28.787
       L28.787 15.287
       A30 30 0 0 1 50 6.5
       L65 6.5"
    fill="none"
    stroke="#000000"
    stroke-width="1"
    stroke-linecap="square"
    stroke-linejoin="round"
    opacity="1.0"
  />
  
  <!-- Glow Edge - 08 -->
  <path 
    d="M3.5 65
       L3.5 50
       A33 33 0 0 1 13.165 26.665
       L26.665 13.165
       A33 33 0 0 1 50 3.5
       L65 3.5"
    fill="none"
    stroke="#41c4fe"
    stroke-width="5"
    stroke-linecap="square"
    stroke-linejoin="round"
    opacity="1.0"
  />
  
  <!-- Black Edge - 09 -->
  <path 
    d="M0.5 65
       L0.5 50
       A36 36 0 0 1 11.044 24.544
       L24.544 11.044
       A36 36 0 0 1 50 0.5
       L65 0.5"
    fill="none"
    stroke="#000000"
    stroke-width="1"
    stroke-linecap="square"
    stroke-linejoin="round"
    opacity="1.0"
  />

</svg>